#tb 0: 1/50
0,         50,         50,        1,   152064, 0x05b789ef
0,         51,         51,        1,   152064, 0x05b789ef
0,         52,         52,        1,   152064, 0x43d796b5
0,         53,         53,        1,   152064, 0x43d796b5
0,         54,         54,        1,   152064, 0xd780d887
0,         55,         55,        1,   152064, 0xd780d887
0,         56,         56,        1,   152064, 0x76d2a455
0,         57,         57,        1,   152064, 0x76d2a455
0,         58,         58,        1,   152064, 0x6dc3650e
0,         59,         59,        1,   152064, 0x6dc3650e
0,         60,         60,        1,   152064, 0x0f9d6aca
0,         61,         61,        1,   152064, 0x0f9d6aca
0,         62,         62,        1,   152064, 0xe295c51e
0,         63,         63,        1,   152064, 0xe295c51e
0,         64,         64,        1,   152064, 0xd766fc8d
0,         65,         65,        1,   152064, 0xd766fc8d
0,         66,         66,        1,   152064, 0xe22f7a30
0,         67,         67,        1,   152064, 0xe22f7a30
0,         68,         68,        1,   152064, 0x7fea4378
0,         69,         69,        1,   152064, 0x7fea4378
0,         70,         70,        1,   152064, 0xfa8d94fb
0,         71,         71,        1,   152064, 0xfa8d94fb
0,         72,         72,        1,   152064, 0x4c9737ab
0,         73,         73,        1,   152064, 0x4c9737ab
0,         74,         74,        1,   152064, 0xa50d01f8
